<svg xmlns="http://www.w3.org/2000/svg" width="2342" height="512" fill="none"><g clip-path="url(#a)"><path fill="#E4662C" d="M384 0H128C57.308 0 0 57.307 0 128v256c0 70.692 57.307 128 128 128h256c70.692 0 128-57.308 128-128V128C512 57.308 454.692 0 384 0Z"/><path fill="url(#b)" d="M384 0H128C57.308 0 0 57.307 0 128v256c0 70.692 57.307 128 128 128h256c70.692 0 128-57.308 128-128V128C512 57.308 454.692 0 384 0Z" style="mix-blend-mode:overlay"/><path stroke="#fff" stroke-linecap="round" stroke-linejoin="round" stroke-width="31.125" d="m181.092 260.233-54.78 37.267L256 385.688 385.688 297.5l-54.781-37.267M256 126.312 385.688 214.5 256 302.688 126.312 214.5 256 126.312Z"/></g><path fill="#1F272E" d="M753.477 182.818v45.455H618.818v-45.455h134.659ZM649.642 401V167.051c0-15.814 3.078-28.93 9.233-39.346 6.25-10.417 14.773-18.23 25.568-23.438 10.796-5.208 23.059-7.813 36.79-7.813 9.28 0 17.756.71 25.426 2.131 7.765 1.421 13.542 2.699 17.33 3.835l-10.796 45.455c-2.367-.758-5.303-1.468-8.807-2.131a54.938 54.938 0 0 0-10.511-.994c-8.902 0-15.104 2.083-18.608 6.25-3.504 4.072-5.256 9.801-5.256 17.188V401h-60.369Zm124.803 0V182.818h58.664v38.068h2.273c3.977-13.541 10.654-23.769 20.029-30.681 9.375-7.008 20.17-10.512 32.386-10.512 5.871 0 11.316.71 16.335 2.131 5.019 1.42 9.517 3.362 13.494 5.824l-18.181 50c-2.841-1.421-5.966-2.604-9.375-3.551-3.315-1.042-7.055-1.563-11.222-1.563-8.144 0-15.53 1.941-22.159 5.824-6.629 3.788-11.885 9.044-15.767 15.767-3.883 6.723-5.871 14.536-5.966 23.437V401h-60.511Zm222.991 3.551c-16.572 0-31.581-4.261-45.028-12.784-13.353-8.617-23.959-21.259-31.819-37.926-7.765-16.761-11.647-37.311-11.647-61.648 0-25 4.024-45.786 12.074-62.358 8.049-16.666 18.75-29.119 32.102-37.358 13.447-8.333 28.172-12.5 44.176-12.5 12.216 0 22.396 2.084 30.536 6.25 8.24 4.072 14.87 9.186 19.89 15.341 5.11 6.061 9 12.027 11.65 17.898h1.84v-36.648h60.37V401h-59.66v-34.943h-2.55c-2.84 6.06-6.87 12.074-12.08 18.04-5.11 5.871-11.79 10.748-20.02 14.63-8.15 3.883-18.09 5.824-29.834 5.824Zm19.174-48.153c9.76 0 17.99-2.652 24.72-7.955 6.82-5.398 12.02-12.926 15.62-22.585 3.7-9.659 5.54-20.975 5.54-33.949 0-12.973-1.8-24.242-5.39-33.807-3.6-9.564-8.81-16.95-15.63-22.159-6.82-5.208-15.1-7.812-24.86-7.812-9.94 0-18.322 2.699-25.14 8.096-6.818 5.398-11.979 12.879-15.483 22.443-3.504 9.565-5.255 20.644-5.255 33.239 0 12.689 1.751 23.911 5.255 33.665 3.599 9.659 8.76 17.235 15.483 22.727 6.818 5.398 15.2 8.097 25.14 8.097Zm138.73 126.42v-300h59.65v36.648h2.7c2.65-5.871 6.49-11.837 11.51-17.898 5.11-6.155 11.74-11.269 19.89-15.341 8.23-4.166 18.46-6.25 30.68-6.25 15.91 0 30.58 4.167 44.03 12.5 13.45 8.239 24.2 20.692 32.25 37.358 8.04 16.572 12.07 37.358 12.07 62.358 0 24.337-3.93 44.887-11.79 61.648-7.77 16.667-18.37 29.309-31.82 37.926-13.35 8.523-28.31 12.784-44.89 12.784-11.74 0-21.73-1.941-29.97-5.824-8.14-3.882-14.82-8.759-20.03-14.63-5.2-5.966-9.18-11.98-11.93-18.04h-1.84v116.761h-60.51Zm59.23-190.909c0 12.974 1.8 24.29 5.4 33.949 3.59 9.659 8.8 17.187 15.62 22.585 6.82 5.303 15.11 7.955 24.86 7.955 9.85 0 18.18-2.699 25-8.097 6.82-5.492 11.98-13.068 15.48-22.727 3.6-9.754 5.4-20.976 5.4-33.665 0-12.595-1.75-23.674-5.26-33.239-3.5-9.564-8.66-17.045-15.48-22.443-6.82-5.397-15.2-8.096-25.14-8.096-9.85 0-18.18 2.604-25 7.812-6.72 5.209-11.89 12.595-15.48 22.159-3.6 9.565-5.4 20.834-5.4 33.807Zm177.89 190.909v-300h59.66v36.648h2.7c2.65-5.871 6.48-11.837 11.5-17.898 5.12-6.155 11.75-11.269 19.89-15.341 8.24-4.166 18.47-6.25 30.68-6.25 15.91 0 30.59 4.167 44.04 12.5 13.44 8.239 24.19 20.692 32.24 37.358 8.05 16.572 12.07 37.358 12.07 62.358 0 24.337-3.93 44.887-11.79 61.648-7.76 16.667-18.37 29.309-31.81 37.926-13.36 8.523-28.32 12.784-44.89 12.784-11.74 0-21.73-1.941-29.97-5.824-8.15-3.882-14.82-8.759-20.03-14.63-5.21-5.966-9.19-11.98-11.93-18.04h-1.85v116.761h-60.51Zm59.23-190.909c0 12.974 1.8 24.29 5.4 33.949 3.6 9.659 8.81 17.187 15.63 22.585 6.81 5.303 15.1 7.955 24.85 7.955 9.85 0 18.19-2.699 25-8.097 6.82-5.492 11.98-13.068 15.49-22.727 3.6-9.754 5.39-20.976 5.39-33.665 0-12.595-1.75-23.674-5.25-33.239-3.5-9.564-8.67-17.045-15.48-22.443-6.82-5.397-15.2-8.096-25.15-8.096-9.84 0-18.18 2.604-25 7.812-6.72 5.209-11.88 12.595-15.48 22.159-3.6 9.565-5.4 20.834-5.4 33.807Zm277.33 113.352c-22.45 0-41.76-4.545-57.96-13.636-16.1-9.186-28.5-22.159-37.21-38.92-8.72-16.857-13.07-36.79-13.07-59.802 0-22.443 4.35-42.14 13.07-59.091 8.71-16.95 20.97-30.16 36.79-39.63 15.91-9.47 34.56-14.205 55.96-14.205 14.4 0 27.8 2.32 40.2 6.961 12.5 4.545 23.39 11.41 32.67 20.596 9.38 9.186 16.67 20.739 21.88 34.659 5.2 13.826 7.81 30.019 7.81 48.58v16.619h-184.23v-37.5h127.27c0-8.712-1.9-16.43-5.68-23.153-3.79-6.724-9.05-11.98-15.77-15.767-6.63-3.883-14.35-5.824-23.15-5.824-9.19 0-17.33 2.13-24.44 6.392-7 4.166-12.5 9.801-16.47 16.903-3.98 7.008-6.02 14.82-6.11 23.438v35.653c0 10.796 1.99 20.123 5.97 27.983 4.07 7.86 9.8 13.921 17.18 18.182 7.39 4.261 16.15 6.392 26.28 6.392 6.72 0 12.88-.947 18.47-2.841 5.58-1.894 10.37-4.735 14.34-8.523 3.98-3.788 7.01-8.428 9.09-13.92l55.97 3.693c-2.84 13.447-8.66 25.189-17.47 35.227-8.71 9.943-19.98 17.709-33.81 23.296-13.73 5.492-29.59 8.238-47.58 8.238Zm259.57-147.727v48.011h-132.68v-48.011h132.68Zm175.47 50.568V182.818h60.51V401h-58.09v-39.631h-2.28c-4.92 12.784-13.11 23.059-24.57 30.824-11.36 7.765-25.24 11.648-41.62 11.648-14.58 0-27.41-3.314-38.49-9.943-11.08-6.629-19.75-16.051-26-28.267-6.15-12.216-9.28-26.847-9.37-43.892V182.818h60.51v128.125c.09 12.879 3.55 23.059 10.37 30.54 6.82 7.481 15.95 11.222 27.41 11.222 7.29 0 14.11-1.658 20.46-4.972 6.34-3.409 11.46-8.428 15.34-15.057 3.98-6.629 5.92-14.82 5.82-24.574ZM2256.98 401V182.818h60.51V401h-60.51Zm30.39-246.307c-8.99 0-16.71-2.983-23.15-8.949-6.34-6.06-9.52-13.305-9.52-21.733 0-8.333 3.18-15.483 9.52-21.449 6.44-6.06 14.16-9.09 23.15-9.09 9 0 16.67 3.03 23.01 9.09 6.44 5.966 9.66 13.116 9.66 21.449 0 8.428-3.22 15.673-9.66 21.733-6.34 5.966-14.01 8.949-23.01 8.949Z"/><defs><radialGradient id="b" cx="0" cy="0" r="1" gradientTransform="matrix(0 512 -512 0 256 0)" gradientUnits="userSpaceOnUse"><stop stop-color="#fff"/><stop offset="1" stop-color="#fff" stop-opacity="0"/></radialGradient><clipPath id="a"><path fill="#fff" d="M0 0h512v512H0z"/></clipPath></defs></svg>