<svg xmlns="http://www.w3.org/2000/svg" fill="none" viewBox="0 0 1701 476"><path fill="currentColor" d="M1588.92 344V137.75h57.62V344h-57.62Zm28.71-232.227c-9.5 0-17.38-2.864-23.63-8.593-6.25-5.86-9.38-13.217-9.38-22.07 0-8.855 3.13-16.147 9.38-21.876 6.25-5.859 14.13-8.789 23.63-8.789 9.38 0 17.19 2.93 23.44 8.79 6.25 5.728 9.38 13.02 9.38 21.874 0 8.855-3.13 16.211-9.38 22.071-6.25 5.729-14.06 8.593-23.44 8.593ZM1467.23 348.297c-29.95 0-53.58-7.813-70.9-23.438-17.19-15.755-25.78-37.044-25.78-63.867V137.75h57.61v119.727c0 13.541 3.39 24.088 10.16 31.64s16.41 11.328 28.91 11.328c12.63 0 22.33-3.776 29.1-11.328 6.77-7.552 10.15-18.099 10.15-31.64V137.75h57.43v123.242c0 26.823-8.6 48.112-25.79 63.867-17.18 15.625-40.82 23.438-70.89 23.438ZM1343.19 206.305v46.093h-132.23v-46.093h132.23ZM1093.95 348.688c-20.83 0-38.99-4.623-54.49-13.868-15.36-9.244-27.34-21.94-35.94-38.086-8.46-16.276-12.692-34.83-12.692-55.664 0-20.963 4.297-39.583 12.892-55.859 8.72-16.276 20.7-29.037 35.94-38.281 15.23-9.245 32.68-13.868 52.34-13.868 20.31 0 38.02 4.558 53.12 13.672 15.24 8.985 27.09 21.55 35.55 37.696 8.6 16.015 12.89 34.505 12.89 55.468v15.43h-146.68c.52 15.234 5.02 27.409 13.48 36.524 8.46 9.114 20.25 13.671 35.35 13.671 11.2 0 20.51-2.408 27.93-7.226 7.55-4.818 12.63-11.198 15.24-19.141h52.53c-2.47 13.672-8.26 25.716-17.38 36.133-9.11 10.417-20.57 18.62-34.37 24.609-13.81 5.86-29.04 8.79-45.71 8.79Zm-46.68-130.079h92c-1.44-12.89-6.25-23.047-14.46-30.468-8.07-7.552-18.62-11.329-31.64-11.329-12.89 0-23.37 3.777-31.44 11.329-8.08 7.421-12.89 17.578-14.46 30.468ZM776.75 425.641V137.75h56.836v27.93h.586c6.38-10.677 14.779-18.685 25.195-24.024 10.547-5.468 22.526-8.203 35.938-8.203 17.578 0 33.007 4.557 46.289 13.672 13.411 8.984 23.828 21.549 31.25 37.695 7.552 16.146 11.328 34.766 11.328 55.86 0 21.484-3.711 40.299-11.133 56.445-7.422 16.146-17.838 28.711-31.25 37.695-13.281 8.985-28.906 13.477-46.875 13.477-27.995 0-47.982-11.719-59.961-35.156h-.586v112.5H776.75Zm103.32-124.219c13.933 0 25.065-5.274 33.399-15.82 8.463-10.678 12.695-25.651 12.695-44.922 0-19.271-4.232-34.18-12.695-44.727-8.334-10.677-19.466-16.015-33.399-16.015-14.583 0-26.302 5.533-35.156 16.601-8.854 11.068-13.281 25.781-13.281 44.141 0 18.489 4.427 33.268 13.281 44.336 8.854 10.937 20.573 16.406 35.156 16.406ZM553.688 425.641V137.75h56.835v27.93h.586c6.381-10.677 14.779-18.685 25.196-24.024 10.547-5.468 22.526-8.203 35.937-8.203 17.578 0 33.008 4.557 46.289 13.672 13.412 8.984 23.828 21.549 31.25 37.695 7.552 16.146 11.328 34.766 11.328 55.86 0 21.484-3.711 40.299-11.132 56.445-7.422 16.146-17.839 28.711-31.25 37.695-13.282 8.985-28.907 13.477-46.875 13.477-27.995 0-47.982-11.719-59.961-35.156h-.586v112.5h-57.617Zm103.32-124.219c13.932 0 25.065-5.274 33.398-15.82 8.464-10.678 12.696-25.651 12.696-44.922 0-19.271-4.232-34.18-12.696-44.727-8.333-10.677-19.466-16.015-33.398-16.015-14.584 0-26.302 5.533-35.156 16.601-8.855 11.068-13.282 25.781-13.282 44.141 0 18.489 4.427 33.268 13.282 44.336 8.854 10.937 20.572 16.406 35.156 16.406ZM411.289 348.297c-17.969 0-33.659-4.492-47.07-13.477-13.412-8.984-23.828-21.549-31.25-37.695-7.292-16.146-10.938-34.961-10.938-56.445 0-21.094 3.711-39.714 11.133-55.86 7.552-16.146 17.969-28.711 31.25-37.695 13.412-9.115 28.906-13.672 46.484-13.672 13.282 0 25.196 2.735 35.743 8.203 10.547 5.339 19.01 13.347 25.39 24.024h.586v-27.93h56.25V344h-56.25v-30.859h-.586c-5.859 11.588-14.062 20.377-24.609 26.367-10.547 5.859-22.591 8.789-36.133 8.789Zm14.844-46.875c14.583 0 26.302-5.469 35.156-16.406 8.854-11.068 13.281-25.847 13.281-44.336 0-18.36-4.427-33.073-13.281-44.141-8.854-11.068-20.573-16.601-35.156-16.601-13.932 0-25.13 5.338-33.594 16.015-8.333 10.547-12.5 25.456-12.5 44.727 0 19.271 4.167 34.244 12.5 44.922 8.464 10.546 19.662 15.82 33.594 15.82ZM199.75 344V137.75h55.469v35.156h.586c3.776-12.37 9.7-21.549 17.773-27.539 8.073-5.989 18.945-8.984 32.617-8.984 3.386 0 6.446.065 9.18.195 2.865.13 5.469.195 7.813.195v49.024c-2.084-.13-5.534-.326-10.352-.586a268.15 268.15 0 0 0-14.453-.391c-11.849 0-21.68 4.037-29.492 12.11-7.683 8.073-11.524 19.856-11.524 35.351V344H199.75ZM187.43 137.75v45.117h-42.188V344H87.82V182.867H50.516V137.75H87.82v-26.758c0-38.672 22.331-58.008 66.992-58.008h32.618v45.118h-19.532c-8.333 0-14.192 1.757-17.578 5.273-3.385 3.385-5.078 9.18-5.078 17.383v16.992h42.188Z"/><path fill="#fff" fill-rule="evenodd" d="M1588.92 394c-27.61 0-50-22.386-50-50v-19.881c16.66-15.679 24.99-36.722 24.99-63.127V137.75h-24.99c0-7.18 1.52-14.006 4.24-20.177-5.67-11.198-8.54-23.591-8.54-36.464 0-22.08 8.44-42.904 25.39-58.547 16.53-15.39 37.01-22.117 57.62-22.117 20.69 0 41.04 6.853 57.43 22.117 16.95 15.643 25.39 36.467 25.39 58.547 0 12.716-2.8 24.963-8.33 36.053a49.823 49.823 0 0 1 4.42 20.588V344c0 27.614-22.39 50-50 50h-57.62Zm57.62-256.25h-57.62V344h57.62V137.75Zm3.24-49.897c.44-2.142.67-4.39.67-6.744 0-8.854-3.13-16.145-9.38-21.875-6.25-5.859-14.06-8.789-23.44-8.789-9.5 0-17.38 2.93-23.63 8.79-6.25 5.728-9.38 13.02-9.38 21.874 0 2.364.23 4.62.67 6.77.69 3.304 1.9 6.355 3.63 9.154 1.37 2.205 3.06 4.254 5.08 6.147 6.25 5.729 14.13 8.593 23.63 8.593 9.38 0 17.19-2.864 23.44-8.593 2.22-2.077 4.04-4.343 5.47-6.796a28.09 28.09 0 0 0 3.24-8.53Z" clip-rule="evenodd"/><path fill="#fff" fill-rule="evenodd" d="M1343.19 252.398v-46.093h-22.64V137.75c0-27.614 22.38-50 50-50h57.61c15.87 0 30 7.387 39.16 18.909 9.16-11.522 23.3-18.909 39.16-18.909h57.43a49.8 49.8 0 0 1 23.12 5.656c1.56 3.623 3.88 6.881 6.97 9.774a31.494 31.494 0 0 0 11.45 6.744 49.755 49.755 0 0 1 8.46 27.826h-24.99v204.973c-4.89 6.723-10.55 13.076-17.01 18.994l-.15.139c-28.85 26.225-65.79 36.441-104.53 36.441-38.7 0-75.52-10.258-104.4-36.315-.09-.088-.19-.176-.29-.265-29.11-26.686-41.99-62.205-41.99-100.725v-8.594h22.64Zm88.16 91.356c10.73 3.029 22.69 4.543 35.88 4.543 13.31 0 25.36-1.531 36.15-4.593 13.59-3.855 25.17-10.137 34.74-18.845 17.19-15.755 25.79-37.044 25.79-63.867V137.75h-57.43v119.727c0 13.541-3.38 24.088-10.15 31.64a31.49 31.49 0 0 1-9.51 7.238c-5.47 2.727-12 4.09-19.59 4.09-7.49 0-13.94-1.353-19.37-4.06a31.73 31.73 0 0 1-9.54-7.268c-6.77-7.552-10.16-18.099-10.16-31.64V137.75h-57.61v123.242c0 26.823 8.59 48.112 25.78 63.867 9.69 8.747 21.36 15.045 35.02 18.895Z" clip-rule="evenodd"/><path fill="#fff" fill-rule="evenodd" d="M1186.36 295.938c7.26 4.113 15.66 6.46 24.6 6.46h132.23c12.01 0 23.04-4.238 31.66-11.301-2.87-9.111-4.3-19.146-4.3-30.105v-96.545c-7.86-5.148-17.26-8.142-27.36-8.142h-132.23c-14.81 0-28.12 6.442-37.28 16.677a101.42 101.42 0 0 1 6.99 11.448c3.67 6.84 6.56 14.132 8.66 21.875 2.82 10.386 4.23 21.584 4.23 33.593v15.43h-32.51a49.667 49.667 0 0 0 7.67 23.828h22.69c-1.06 5.897-2.75 11.491-5.05 16.782Zm156.83-43.54v-46.093h-132.23v46.093h132.23Z" clip-rule="evenodd"/><path fill="#fff" fill-rule="evenodd" d="M958.986 319.461a106.802 106.802 0 0 0 .271.52l.129.246c12.759 23.971 31.012 43.425 54.294 57.436l.16.096c24.38 14.542 51.68 20.929 80.11 20.929 22.63 0 44.61-4.004 65.25-12.765l.36-.157c20-8.678 37.7-21.089 52.1-37.552 15.1-17.256 24.88-37.611 28.96-60.155a49.817 49.817 0 0 0 .22-16.428 49.712 49.712 0 0 0 2.72-16.303v-2.93h-32.6v-46.093h29.61c-2.93-15.777-8.07-30.974-15.73-45.303-12.6-23.955-30.76-43.393-54.1-57.21-23.97-14.4-50.81-20.73-78.74-20.73-27.83 0-54.44 6.65-78.28 21.123-23.167 14.056-41.282 33.547-54.07 57.405l-.146.275c-.159.301-.316.602-.473.903 5.395 6.405 9.999 13.756 13.813 22.052 7.552 16.146 11.328 34.766 11.328 55.86v.39c-.045 21.322-3.756 40.007-11.133 56.055-3.87 8.419-8.554 15.865-14.053 22.336Zm48.334-140.468a104.65 104.65 0 0 0-3.6 6.218c-8.595 16.276-12.892 34.896-12.892 55.859 0 20.834 4.232 39.388 12.692 55.664 2.3 4.323 4.85 8.399 7.63 12.228a95.212 95.212 0 0 0 14.1 15.488 97.577 97.577 0 0 0 14.21 10.37c15.5 9.245 33.66 13.868 54.49 13.868.59 0 1.18-.004 1.76-.011 15.98-.2 30.63-3.126 43.95-8.779 2.77-1.205 5.46-2.499 8.04-3.883.11-.056.21-.112.32-.169a98.799 98.799 0 0 0 10.72-6.69c5.67-4.078 10.77-8.7 15.29-13.867 2.77-3.17 5.24-6.49 7.4-9.961a72.38 72.38 0 0 0 3.14-5.589c3.24-6.393 5.52-13.254 6.84-20.583h-52.53a37.302 37.302 0 0 1-1.58 3.991c-2.86 6.117-7.42 11.167-13.66 15.15-.43.278-.86.547-1.3.809-.1.06-.21.12-.31.18-5.88 3.423-12.86 5.437-20.95 6.042-1.74.13-3.53.195-5.37.195a67.588 67.588 0 0 1-5.27-.195c-10.92-.831-19.9-4.312-26.95-10.444-.04-.038-.09-.077-.13-.116a42.017 42.017 0 0 1-3-2.916 46.157 46.157 0 0 1-7.22-10.286c-2.03-3.939-3.58-8.258-4.63-12.957-.54-2.439-.96-4.98-1.24-7.624a84.722 84.722 0 0 1-.39-5.657h146.68v-15.43c0-3.645-.13-7.215-.39-10.711-.62-8.383-1.99-16.336-4.11-23.859a105.11 105.11 0 0 0-4.04-11.706c-1.3-3.15-2.75-6.214-4.35-9.192-6.26-11.95-14.38-21.939-24.35-29.966l-.6-.479a94.648 94.648 0 0 0-10.59-7.251c-14.82-8.938-32.14-13.494-51.96-13.666-.39-.004-.78-.006-1.17-.006-19.66 0-37.11 4.623-52.34 13.868a98.77 98.77 0 0 0-9.68 6.683c-.1.084-.21.168-.32.252-8.77 6.941-16.22 15.317-22.34 25.128Zm131.95 39.616h-92c.59-4.807 1.62-9.234 3.11-13.281.26-.715.54-1.419.83-2.11 2.48-5.887 5.99-10.913 10.52-15.077a40.36 40.36 0 0 1 1.91-1.685c7.54-6.216 16.99-9.428 28.36-9.633.39-.007.78-.011 1.17-.011 11.42 0 20.94 2.904 28.55 8.711l.36.282a40.09 40.09 0 0 1 2.73 2.336c5.15 4.654 8.96 10.383 11.44 17.187.24.665.47 1.34.69 2.026.05.154.1.309.14.464.27.871.52 1.758.74 2.662a61.242 61.242 0 0 1 1.45 8.129Z" clip-rule="evenodd"/><path fill="#fff" fill-rule="evenodd" d="M726.75 328.712v96.929c0 27.614 22.386 50 50 50h57.617c27.614 0 50-22.386 50-50v-27.728c3.512.26 7.031.384 10.547.384 26.667 0 52.286-6.801 74.794-21.997 21.785-14.62 37.902-34.674 48.762-58.292.02-.035.03-.071.05-.107-5.81-6.234-10.8-13.29-15-21.167-8.46-16.276-12.692-34.83-12.692-55.664l.001-.39c.053-20.805 4.349-39.294 12.891-55.469 4.16-7.772 9.07-14.742 14.72-20.911-.08-.169-.15-.337-.23-.506-10.83-23.505-26.887-43.472-48.557-58.054-22.315-15.242-47.728-22.287-74.348-22.287-15.106 0-30.027 2.311-44.284 7.42a49.9 49.9 0 0 0-17.435-3.123H776.75c-27.614 0-50 22.386-50 50v15.652c9.525 8.264 17.202 18.737 23.031 31.418 7.552 16.146 11.328 34.766 11.328 55.86 0 21.484-3.711 40.299-11.132 56.445-5.87 12.768-13.612 23.297-23.227 31.587Zm50-190.962v287.891h57.617v-112.5h.586c9.743 19.061 24.782 30.371 45.117 33.93 1.407.246 2.84.456 4.297.628 3.38.398 6.895.598 10.547.598 4.37 0 8.602-.266 12.695-.797 12.735-1.654 24.129-5.88 34.18-12.68 13.412-8.984 23.828-21.549 31.25-37.695 7.422-16.146 11.133-34.961 11.133-56.445 0-21.094-3.776-39.714-11.328-55.86-7.422-16.146-17.839-28.711-31.25-37.695-9.51-6.526-20.121-10.716-31.834-12.569-4.645-.735-9.464-1.103-14.455-1.103-4.08 0-8.028.253-11.842.759a81.632 81.632 0 0 0-3.393.523 74.37 74.37 0 0 0-11.634 3.015 69.219 69.219 0 0 0-9.069 3.906c-10.416 5.339-18.815 13.347-25.195 24.024h-.586v-27.93H776.75Zm57.508 125.391.109.415c.186.7.381 1.391.586 2.075 2.214 7.389 5.534 13.851 9.961 19.385 5.182 6.401 11.345 10.929 18.489 13.584 5.063 1.881 10.619 2.822 16.667 2.822 5.363 0 10.311-.781 14.844-2.344a39.084 39.084 0 0 0 2.175-.823c6.315-2.608 11.775-6.825 16.38-12.653 8.463-10.678 12.695-25.651 12.695-44.922 0-19.271-4.232-34.18-12.695-44.727-4.39-5.624-9.556-9.767-15.5-12.429a38.678 38.678 0 0 0-2.664-1.075c-4.639-1.674-9.718-2.511-15.235-2.511a60.002 60.002 0 0 0-1.078.01c-5.775.109-11.092 1.104-15.95 2.983-6.991 2.704-13.034 7.24-18.128 13.608-4.386 5.483-7.686 11.861-9.9 19.134-2.254 7.407-3.381 15.743-3.381 25.007 0 8.22.875 15.707 2.625 22.461Z" clip-rule="evenodd"/><path fill="#fff" fill-rule="evenodd" d="M503.688 344v81.641c0 27.614 22.385 50 50 50h57.617c27.614 0 50-22.386 50-50v-27.728c3.511.26 7.03.384 10.547.384 26.667 0 52.286-6.801 74.793-21.997 11.629-7.804 21.644-17.156 30.105-27.773V137.75h3.12c-9.091-12.372-20.155-23.179-33.28-32.01-22.315-15.242-47.727-22.287-74.348-22.287-15.105 0-30.026 2.311-44.284 7.42a49.896 49.896 0 0 0-17.435-3.123h-56.835c-27.615 0-50 22.386-50 50h25.179V344h-25.179Zm50-206.25v287.891h57.617v-112.5h.586c9.742 19.061 24.781 30.371 45.117 33.93 1.407.246 2.839.456 4.297.628a90.16 90.16 0 0 0 10.547.598c4.37 0 8.601-.266 12.694-.797 12.736-1.654 24.129-5.88 34.181-12.68 13.411-8.984 23.828-21.549 31.25-37.695 7.421-16.146 11.132-34.961 11.132-56.445 0-21.094-3.776-39.714-11.328-55.86-7.422-16.146-17.838-28.711-31.25-37.695-9.509-6.526-20.121-10.716-31.833-12.569-4.646-.735-9.464-1.103-14.456-1.103-4.08 0-8.027.253-11.842.759a81.843 81.843 0 0 0-3.392.523 74.353 74.353 0 0 0-11.635 3.015 69.147 69.147 0 0 0-9.068 3.906c-10.417 5.339-18.815 13.347-25.196 24.024h-.586v-27.93h-56.835Zm57.508 125.391.109.415c.186.7.381 1.391.586 2.075 2.213 7.389 5.533 13.851 9.961 19.385 5.181 6.401 11.344 10.929 18.488 13.584 5.063 1.881 10.619 2.822 16.668 2.822 5.362 0 10.31-.781 14.844-2.344a39.084 39.084 0 0 0 2.175-.823c6.315-2.608 11.774-6.825 16.379-12.653 8.464-10.678 12.696-25.651 12.696-44.922 0-19.271-4.232-34.18-12.696-44.727-4.389-5.624-9.556-9.767-15.499-12.429-.872-.39-1.76-.748-2.665-1.075-4.639-1.674-9.717-2.511-15.234-2.511a59.896 59.896 0 0 0-1.079.01c-5.775.109-11.091 1.104-15.95 2.983-6.991 2.704-13.033 7.24-18.127 13.608-4.387 5.483-7.687 11.861-9.9 19.134-2.255 7.407-3.382 15.743-3.382 25.007 0 8.22.875 15.707 2.626 22.461Z" clip-rule="evenodd"/><path fill="#fff" fill-rule="evenodd" d="M278.482 189.577c-4.432 16.395-6.451 33.535-6.451 51.103 0 27.101 4.604 53.186 15.369 77.024l.139.304c10.871 23.651 27.021 43.728 48.852 58.353 22.561 15.113 48.184 21.936 74.898 21.936 14.947 0 29.694-2.34 43.756-7.472A49.901 49.901 0 0 0 472.617 394h56.25c9.033 0 17.507-2.395 24.821-6.586V137.75h25.179c0-27.614-22.386-50-50-50h-56.25a49.888 49.888 0 0 0-17.524 3.157c-14.219-5.117-29.104-7.454-44.195-7.454-26.7 0-52.152 7.084-74.544 22.288-12.591 8.525-23.286 18.873-32.183 30.664a90.137 90.137 0 0 1 2.024-.022c3.386 0 6.446.065 9.18.195 2.865.13 5.469.195 7.813.195v49.024c-2.084-.13-5.534-.326-10.352-.586a268.15 268.15 0 0 0-14.453-.391c-7.427 0-14.06 1.586-19.901 4.757Zm85.932-42.452c-13.281 8.984-23.698 21.549-31.25 37.695-7.422 16.146-11.133 34.766-11.133 55.86 0 21.484 3.646 40.299 10.938 56.445 7.422 16.146 17.838 28.711 31.25 37.695 10.143 6.795 21.589 11.021 34.339 12.676 4.108.534 8.352.801 12.731.801 3.945 0 7.762-.249 11.452-.746a78.363 78.363 0 0 0 3.392-.533A71.06 71.06 0 0 0 437.498 344a66.681 66.681 0 0 0 9.924-4.492c10.547-5.99 18.75-14.779 24.609-26.367h.586V344h56.25V137.75h-56.25v27.93h-.586c-6.38-10.677-14.843-18.685-25.39-24.024a69.608 69.608 0 0 0-9.054-3.906 74.142 74.142 0 0 0-11.454-2.993c-1.12-.2-2.251-.377-3.394-.531a88.52 88.52 0 0 0-11.841-.773c-5 0-9.832.369-14.495 1.107-11.73 1.855-22.393 6.043-31.989 12.565Zm43.77 36.402c-5.973 2.662-11.188 6.804-15.645 12.426-8.333 10.547-12.5 25.456-12.5 44.727 0 19.271 4.167 34.244 12.5 44.922 4.676 5.826 10.186 10.044 16.531 12.651.729.3 1.469.578 2.219.835 4.448 1.523 9.282 2.3 14.503 2.333l.341.001h.13c6.106-.014 11.709-.989 16.808-2.924 7.029-2.668 13.102-7.162 18.218-13.482 4.918-6.147 8.47-13.439 10.656-21.875 1.75-6.754 2.625-14.241 2.625-22.461 0-9.264-1.127-17.6-3.381-25.007-2.214-7.273-5.513-13.651-9.9-19.134-5.094-6.368-11.137-10.904-18.128-13.608-4.845-1.874-10.146-2.868-15.903-2.982a36.366 36.366 0 0 0-1.125-.011c-5.505 0-10.583.833-15.235 2.5-.921.33-1.826.693-2.714 1.089Z" clip-rule="evenodd"/><path fill="#fff" fill-rule="evenodd" d="M187.43 182.867V137.75h-37.68c0-16.147 7.654-30.507 19.533-39.648h18.147v-8.823a50.098 50.098 0 0 1 12.32-1.529h55.469a49.89 49.89 0 0 1 17.553 3.168c11.173-3.284 22.563-4.535 33.423-4.535 3.98 0 7.83.075 11.497.249 2.247.101 4.063.141 5.496.141 27.614 0 50 22.386 50 50v5.188a77.856 77.856 0 0 0-8.774 5.164c-13.281 8.984-23.698 21.549-31.25 37.695-.149.325-.297.65-.443.977-6.559 14.65-10.099 31.313-10.622 49.988a49.27 49.27 0 0 1-2.03-.086c-1.855-.115-5.121-.301-9.932-.561-.923-.05-1.847-.094-2.77-.132V344c0 27.614-22.386 50-50 50H199.75c-27.614 0-50-22.386-50-50V182.867h37.68Zm67.789-45.117H199.75V344h57.617V232.281c0-3.308.175-6.448.526-9.418 1.29-10.94 4.956-19.584 10.998-25.933 5.594-5.781 12.222-9.492 19.885-11.133a43.916 43.916 0 0 1 6.392-.874 49.244 49.244 0 0 1 3.215-.103 269.434 269.434 0 0 1 14.453.391l.223.012.105.006c4.646.251 7.988.441 10.024.568v-49.024c-2.32 0-4.894-.063-7.723-.191l-.09-.004a194.889 194.889 0 0 0-10.174-.19 81.99 81.99 0 0 0-6.818.349l-.375.036c-2.27.227-4.449.553-6.535.977-7.006 1.425-12.971 3.964-17.895 7.617-.131.097-.261.195-.39.294-7.874 5.994-13.668 15.076-17.383 27.245h-.586V137.75Z" clip-rule="evenodd"/><path fill="#fff" fill-rule="evenodd" d="M233.346 117.926a49.847 49.847 0 0 1 4.084 19.824h-37.68v93.588a49.628 49.628 0 0 1-4.508.922V344c0 27.614-22.386 50-50 50H87.82c-27.614 0-50-22.386-50-50V231.241C16.354 225.623.516 206.095.516 182.867V137.75c0-23.867 16.722-43.829 39.09-48.806 3.66-21.766 13.311-42.873 32.233-59.257C95.752 8.981 126.398 2.984 154.812 2.984h32.618c27.614 0 50 22.386 50 50v45.118a49.848 49.848 0 0 1-4.084 19.824Zm-88.104 64.941h42.188V137.75h-42.188v-16.992c0-8.203 1.693-13.998 5.078-17.383.099-.102.199-.203.302-.302 1.139-1.102 2.536-2.021 4.19-2.756 3.323-1.477 7.685-2.215 13.086-2.215h19.532V52.984h-32.618c-6.228 0-12.022.377-17.382 1.129-.938.131-1.862.274-2.773.429-31.225 5.298-46.837 24.115-46.837 56.45v26.758H50.516v45.117H87.82V344h57.422V182.867Z" clip-rule="evenodd"/></svg>