<svg viewBox="0 0 16 16" fill="none" xmlns="http://www.w3.org/2000/svg">
<path d="M8 1.68457C8.27614 1.68457 8.5 1.90843 8.5 2.18457C8.49981 2.46055 8.27602 2.68457 8 2.68457H4.78418C4.20116 2.68457 3.79375 2.68502 3.47656 2.71094C3.16535 2.73638 2.98493 2.78357 2.84766 2.85352C2.55556 3.00238 2.31778 3.24012 2.16895 3.53223C2.09908 3.66949 2.05179 3.85002 2.02637 4.16113C2.00047 4.47831 2 4.8858 2 5.46875V11.2158C2 11.7988 2.00045 12.2062 2.02637 12.5234C2.05181 12.8346 2.09901 13.0151 2.16895 13.1523C2.3178 13.4445 2.55551 13.6822 2.84766 13.8311C2.8832 13.8492 2.92201 13.8648 2.96485 13.8799C3.02321 13.7353 3.11751 13.626 3.18067 13.5576C3.28223 13.4477 3.42457 13.3191 3.58008 13.1777L9.36719 7.91602C9.48425 7.8096 9.59222 7.71056 9.68946 7.63477C9.79167 7.5551 9.9105 7.47845 10.0576 7.43066C10.271 7.36141 10.4995 7.35449 10.7168 7.41016C10.8666 7.44857 10.9897 7.51776 11.0967 7.59082C11.1985 7.66034 11.313 7.75174 11.4365 7.85059L13.3506 9.38184C13.5906 9.57382 13.7751 9.71773 13.917 9.89844C14.0848 10.1123 14.2044 10.3604 14.2666 10.625C14.3191 10.8488 14.3154 11.0832 14.3154 11.3906C14.3154 11.517 14.3138 11.6372 14.3135 11.751C14.3136 11.7549 14.3154 11.7588 14.3154 11.7627C14.3154 12.3668 14.3198 12.7678 14.2285 13.1084C14.1983 13.2209 14.1596 13.3298 14.1152 13.4355C14.1131 13.4406 14.1125 13.4462 14.1104 13.4512C14.1038 13.4665 14.0947 13.4809 14.0879 13.4961C14.0678 13.5407 14.047 13.5848 14.0244 13.6279C14.0124 13.651 14 13.6737 13.9873 13.6963C13.9616 13.7421 13.9347 13.7871 13.9063 13.8311C13.8918 13.8534 13.8774 13.8756 13.8623 13.8975C13.8242 13.9526 13.7835 14.0057 13.7412 14.0576C13.7343 14.0661 13.7277 14.0747 13.7207 14.083C13.629 14.1928 13.5287 14.2948 13.4199 14.3877C13.3999 14.4048 13.379 14.421 13.3584 14.4375C13.2491 14.5251 13.1328 14.6039 13.0098 14.6729C12.9924 14.6826 12.9747 14.6918 12.957 14.7012C12.9034 14.7296 12.8489 14.7566 12.793 14.7812C12.7843 14.7851 12.7763 14.7902 12.7676 14.7939C12.7646 14.7952 12.7608 14.7956 12.7578 14.7969C12.65 14.8425 12.5388 14.8823 12.4238 14.9131C12.0832 15.0043 11.6831 15 11.0791 15H4.28418C4.10215 15 3.93443 14.9986 3.7959 14.9902C3.65199 14.9858 3.51878 14.9808 3.39551 14.9707C3.02231 14.9402 2.69533 14.8754 2.39356 14.7217C1.91341 14.477 1.52302 14.0866 1.27832 13.6064C1.12456 13.3047 1.05979 12.9777 1.0293 12.6045C0.999301 12.2372 1 11.7822 1 11.2158V5.46875C1 4.90221 0.999284 4.44647 1.0293 4.0791C1.0598 3.7061 1.12465 3.37977 1.27832 3.07812C1.52299 2.59793 1.91341 2.20763 2.39356 1.96289C2.69533 1.80913 3.02231 1.74436 3.39551 1.71387C3.76284 1.68387 4.21775 1.68457 4.78418 1.68457H8ZM10.3662 8.38184C10.3608 8.38445 10.3426 8.39432 10.3047 8.42383C10.2443 8.47092 10.1683 8.53965 10.04 8.65625L4.25195 13.918C4.22096 13.9461 4.19171 13.9717 4.16504 13.9961C4.34709 13.9978 4.55164 14 4.78418 14H10.707C11.2063 14 11.5552 13.9996 11.8281 13.9805C12.0452 13.9652 12.1888 13.9371 12.2998 13.9004C12.3951 13.8652 12.486 13.8226 12.5713 13.7705C12.6101 13.7468 12.6472 13.7212 12.6836 13.6943C12.6973 13.6842 12.7113 13.6746 12.7246 13.6641C12.7721 13.6265 12.8186 13.5877 12.8613 13.5449C12.9174 13.4888 12.9677 13.4274 13.0147 13.3633C13.0419 13.326 13.0679 13.2878 13.0918 13.248C13.1361 13.1745 13.1732 13.0966 13.2051 13.0156C13.2477 12.9004 13.2792 12.7502 13.2959 12.5117C13.315 12.2388 13.3154 11.8898 13.3154 11.3906C13.3154 11.0358 13.3128 10.9382 13.293 10.8535C13.2641 10.7308 13.2086 10.6158 13.1309 10.5166C13.0772 10.4482 13.0027 10.3848 12.7256 10.1631L10.8115 8.63184C10.6764 8.52374 10.5964 8.46017 10.5332 8.41699C10.4757 8.37771 10.4619 8.37613 10.4688 8.37793C10.435 8.36931 10.3994 8.37107 10.3662 8.38184ZM5.2627 4.0791C6.29456 4.0791 7.13178 4.91541 7.13184 5.94727C7.13184 6.97917 6.2946 7.81543 5.2627 7.81543C4.23101 7.81518 3.39453 6.97901 3.39453 5.94727C3.39459 4.91557 4.23104 4.07935 5.2627 4.0791ZM5.2627 5.0791C4.78333 5.07935 4.39459 5.46785 4.39453 5.94727C4.39453 6.42673 4.7833 6.81518 5.2627 6.81543C5.74231 6.81543 6.13184 6.42688 6.13184 5.94727C6.13178 5.4677 5.74228 5.0791 5.2627 5.0791ZM12.4473 1C12.7234 1 12.9473 1.22386 12.9473 1.5V3.05273H14.5C14.7761 3.05273 15 3.27659 15 3.55273C14.9999 3.82883 14.7761 4.05273 14.5 4.05273H12.9473V5.60547C12.9472 5.88152 12.7233 6.10547 12.4473 6.10547C12.1712 6.10541 11.9474 5.88148 11.9473 5.60547V4.05273H10.3945C10.1185 4.05262 9.89459 3.82876 9.89453 3.55273C9.89453 3.27666 10.1185 3.05285 10.3945 3.05273H11.9473V1.5C11.9473 1.22389 12.1712 1.00006 12.4473 1Z" fill="currentColor"/>
</svg>
