<svg width="44" height="44" viewBox="0 0 44 44" fill="none" xmlns="http://www.w3.org/2000/svg">
<path d="M31.4286 0H12.5714C5.62842 0 0 5.62842 0 12.5714V31.4286C0 38.3716 5.62842 44 12.5714 44H31.4286C38.3716 44 44 38.3716 44 31.4286V12.5714C44 5.62842 38.3716 0 31.4286 0Z" fill="#B352FF"/>
<path d="M34.5716 16.4998V13.3569H30.643V9.42834H27.5001V13.3569H16.5001V9.42834H13.3573V13.3569H9.42871V16.4998H13.3573H16.5001H16.8459H27.5001V27.4998H16.5001V20.5854H13.3573V27.4998H9.42871V30.6426H13.3573V34.5712H16.5001V30.6426H27.5001V34.5712H30.643V30.6426H34.5716V27.4998H30.643V16.4998H34.5716Z" fill="white"/>
</svg>
