<svg width="64" height="64" viewBox="0 0 64 64" fill="none" xmlns="http://www.w3.org/2000/svg">
<path d="M0 25.6C0 16.6392 0 12.1587 1.7439 8.73615C3.27787 5.72556 5.72556 3.27787 8.73615 1.7439C12.1587 0 16.6392 0 25.6 0H38.4C47.3608 0 51.8413 0 55.2639 1.7439C58.2744 3.27787 60.7221 5.72556 62.2561 8.73615C64 12.1587 64 16.6392 64 25.6V38.4C64 47.3608 64 51.8413 62.2561 55.2639C60.7221 58.2744 58.2744 60.7221 55.2639 62.2561C51.8413 64 47.3608 64 38.4 64H25.6C16.6392 64 12.1587 64 8.73615 62.2561C5.72556 60.7221 3.27787 58.2744 1.7439 55.2639C0 51.8413 0 47.3608 0 38.4V25.6Z" fill="black"/>
<path fill-rule="evenodd" clip-rule="evenodd" d="M42.2456 22.7295H21.7656V16.9531H42.2456V22.7295Z" fill="white"/>
<path fill-rule="evenodd" clip-rule="evenodd" d="M21.7578 30.7188H40.646V36.4952H27.5342V47.047H21.7578V30.7188Z" fill="white"/>
</svg>
